# xmcd
#
# Track frame offsets:
#	150
#	15134
#	29641
#	43017
#	58605
#	74992
#	91169
#	107123
#	123145
#	136404
#	155184
#	173165
#	189409
#	208830
#	224494
#	251301
#	265064
#	284310
#	296431
#	312540
#
# Disc length: 4445 seconds
#
# Revision: 0
# Processed by: cddbd v1.5.2PL0 Copyright (c) Steve Scherf et al.
# Submitted via: audiograbber 1.83.01
#
DISCID=31115b14
DTITLE=Various Artist - Elämän Laulut
DYEAR=2011
DGENRE=Pop
TTITLE0=Ossi Ahlapuro - Rakastan Sinua Elämä
TTITLE1=Tapani Perttu - Ystävän Laulu
TTITLE2=Jukka Kuoppamäki - Elämäni On Lauluni
TTITLE3=Juhamatti and Anniina - Tie Seikkailuun
TTITLE4=Tapio Heinonen - Päivät Kuin Unta
TTITLE5=Danny - Tämä Taivas, Tämä Maa
TTITLE6=Jaska Mäkynen - Elämä Antoi, Elämä Otti
TTITLE7=Pasi Kaunisto - Lakeuden Kutsu
TTITLE8=Taiska - Haltin Häät
TTITLE9=Tapani Perttu - Ihana Ihminen
TTITLE10=Mikko Alatalo - Viidestoista Yö
TTITLE11=Jarno Sarjanen - Kadun Lait
TTITLE12=Tapio Heinonen - Kulta-Aikaan
TTITLE13=Päivi Mäkinen - Hymni Rakkaudelle
TTITLE14=Ritva Oksanen - Elämän Meri
TTITLE15=Pepe Willberg - Aamu
TTITLE16=Anniina Puumalainen - Isäni
TTITLE17=Topi Ja Toivottomat - Kultalankaa
TTITLE18=Kake Randelin - Kuin Joutsenlaulu
TTITLE19=Ossi Ahlapuro - Minun Tieni
EXTD=TR.
EXTT0=
EXTT1=
EXTT2=
EXTT3=
EXTT4=
EXTT5=
EXTT6=
EXTT7=
EXTT8=
EXTT9=
EXTT10=
EXTT11=
EXTT12=
EXTT13=
EXTT14=
EXTT15=
EXTT16=
EXTT17=
EXTT18=
EXTT19=
PLAYORDER=
